<?xml version="1.0" standalone="no"?>
<!DOCTYPE svg PUBLIC "-//W3C//DTD SVG 20010904//EN"
 "http://www.w3.org/TR/2001/REC-SVG-20010904/DTD/svg10.dtd">
<svg version="1.0" xmlns="http://www.w3.org/2000/svg"
 width="512.000000pt" height="512.000000pt" viewBox="0 0 512.000000 512.000000"
 preserveAspectRatio="xMidYMid meet">
<metadata>
Created by potrace 1.14, written by Peter Selinger 2001-2017
</metadata>
<g transform="translate(0.000000,512.000000) scale(0.100000,-0.100000)"
fill="#000000" stroke="none">
<path d="M2379 5116 c-2 -2 -40 -6 -83 -10 -44 -4 -82 -8 -85 -10 -3 -2 -31
-7 -61 -11 -30 -3 -75 -11 -100 -17 -25 -5 -56 -12 -70 -14 -52 -10 -236 -66
-326 -100 -412 -154 -811 -442 -1079 -779 -22 -27 -42 -52 -45 -55 -7 -7 -47
-64 -105 -150 -176 -260 -312 -589 -374 -905 -40 -200 -46 -267 -45 -515 0
-184 3 -241 19 -345 3 -16 7 -43 9 -60 37 -265 165 -623 307 -860 10 -16 27
-46 38 -65 19 -36 131 -195 166 -239 162 -197 306 -337 489 -475 321 -240 732
-415 1112 -471 22 -4 50 -8 64 -11 144 -26 530 -26 708 1 75 12 90 14 142 25
30 6 66 13 80 16 111 21 368 110 505 175 657 311 1151 881 1364 1574 39 128
71 273 86 385 27 212 27 561 1 715 -3 17 -8 44 -10 60 -3 17 -9 53 -15 80 -6
28 -13 61 -15 75 -48 242 -200 600 -348 822 l-38 56 220 220 c121 121 220 223
220 226 0 3 -145 5 -321 5 -177 0 -323 2 -326 4 -2 3 -4 149 -4 326 0 176 -2
321 -5 321 -3 0 -104 -99 -226 -220 l-220 -219 -36 24 c-187 123 -372 214
-576 284 -104 36 -284 85 -356 97 -70 11 -85 14 -195 30 -44 6 -460 15 -466
10z"/>
</g>
</svg>
